<mxfile host="app.diagrams.net" modified="2023-05-25T14:41:16.496Z" agent="Mozilla/5.0 (Windows NT 10.0; Win64; x64) AppleWebKit/537.36 (KHTML, like Gecko) Chrome/113.0.0.0 Safari/537.36" etag="N8gnhkvm8jLYku3hRVLv" version="21.3.4" type="device">
  <diagram name="Страница 1" id="PTPnhn3p0fDUXyae2xsw">
    <mxGraphModel dx="954" dy="1849" grid="1" gridSize="10" guides="1" tooltips="1" connect="1" arrows="1" fold="1" page="1" pageScale="1" pageWidth="827" pageHeight="1169" math="0" shadow="0">
      <root>
        <mxCell id="0" />
        <mxCell id="1" parent="0" />
        <mxCell id="PgHZoclMH7Z-AwyKzAfn-1" value="User" style="shape=table;startSize=30;container=1;collapsible=1;childLayout=tableLayout;fixedRows=1;rowLines=0;fontStyle=1;align=center;resizeLast=1;html=1;labelBackgroundColor=none;fillColor=#09555B;strokeColor=#BAC8D3;fontColor=#EEEEEE;rounded=1;" parent="1" vertex="1">
          <mxGeometry x="120" y="50" width="180" height="180" as="geometry" />
        </mxCell>
        <mxCell id="PgHZoclMH7Z-AwyKzAfn-2" value="" style="shape=tableRow;horizontal=0;startSize=0;swimlaneHead=0;swimlaneBody=0;fillColor=none;collapsible=0;dropTarget=0;points=[[0,0.5],[1,0.5]];portConstraint=eastwest;top=0;left=0;right=0;bottom=1;labelBackgroundColor=none;strokeColor=#BAC8D3;fontColor=#EEEEEE;rounded=1;" parent="PgHZoclMH7Z-AwyKzAfn-1" vertex="1">
          <mxGeometry y="30" width="180" height="30" as="geometry" />
        </mxCell>
        <mxCell id="PgHZoclMH7Z-AwyKzAfn-3" value="PK" style="shape=partialRectangle;connectable=0;fillColor=none;top=0;left=0;bottom=0;right=0;fontStyle=1;overflow=hidden;whiteSpace=wrap;html=1;labelBackgroundColor=none;strokeColor=#BAC8D3;fontColor=#EEEEEE;rounded=1;" parent="PgHZoclMH7Z-AwyKzAfn-2" vertex="1">
          <mxGeometry width="30" height="30" as="geometry">
            <mxRectangle width="30" height="30" as="alternateBounds" />
          </mxGeometry>
        </mxCell>
        <mxCell id="PgHZoclMH7Z-AwyKzAfn-4" value="UniqueID" style="shape=partialRectangle;connectable=0;fillColor=none;top=0;left=0;bottom=0;right=0;align=left;spacingLeft=6;fontStyle=5;overflow=hidden;whiteSpace=wrap;html=1;labelBackgroundColor=none;strokeColor=#BAC8D3;fontColor=#EEEEEE;rounded=1;" parent="PgHZoclMH7Z-AwyKzAfn-2" vertex="1">
          <mxGeometry x="30" width="150" height="30" as="geometry">
            <mxRectangle width="150" height="30" as="alternateBounds" />
          </mxGeometry>
        </mxCell>
        <mxCell id="PgHZoclMH7Z-AwyKzAfn-5" value="" style="shape=tableRow;horizontal=0;startSize=0;swimlaneHead=0;swimlaneBody=0;fillColor=none;collapsible=0;dropTarget=0;points=[[0,0.5],[1,0.5]];portConstraint=eastwest;top=0;left=0;right=0;bottom=0;labelBackgroundColor=none;strokeColor=#BAC8D3;fontColor=#EEEEEE;rounded=1;" parent="PgHZoclMH7Z-AwyKzAfn-1" vertex="1">
          <mxGeometry y="60" width="180" height="30" as="geometry" />
        </mxCell>
        <mxCell id="PgHZoclMH7Z-AwyKzAfn-6" value="" style="shape=partialRectangle;connectable=0;fillColor=none;top=0;left=0;bottom=0;right=0;editable=1;overflow=hidden;whiteSpace=wrap;html=1;labelBackgroundColor=none;strokeColor=#BAC8D3;fontColor=#EEEEEE;rounded=1;" parent="PgHZoclMH7Z-AwyKzAfn-5" vertex="1">
          <mxGeometry width="30" height="30" as="geometry">
            <mxRectangle width="30" height="30" as="alternateBounds" />
          </mxGeometry>
        </mxCell>
        <mxCell id="PgHZoclMH7Z-AwyKzAfn-7" value="Nickname" style="shape=partialRectangle;connectable=0;fillColor=none;top=0;left=0;bottom=0;right=0;align=left;spacingLeft=6;overflow=hidden;whiteSpace=wrap;html=1;labelBackgroundColor=none;strokeColor=#BAC8D3;fontColor=#EEEEEE;rounded=1;" parent="PgHZoclMH7Z-AwyKzAfn-5" vertex="1">
          <mxGeometry x="30" width="150" height="30" as="geometry">
            <mxRectangle width="150" height="30" as="alternateBounds" />
          </mxGeometry>
        </mxCell>
        <mxCell id="PgHZoclMH7Z-AwyKzAfn-8" value="" style="shape=tableRow;horizontal=0;startSize=0;swimlaneHead=0;swimlaneBody=0;fillColor=none;collapsible=0;dropTarget=0;points=[[0,0.5],[1,0.5]];portConstraint=eastwest;top=0;left=0;right=0;bottom=0;labelBackgroundColor=none;strokeColor=#BAC8D3;fontColor=#EEEEEE;rounded=1;" parent="PgHZoclMH7Z-AwyKzAfn-1" vertex="1">
          <mxGeometry y="90" width="180" height="30" as="geometry" />
        </mxCell>
        <mxCell id="PgHZoclMH7Z-AwyKzAfn-9" value="" style="shape=partialRectangle;connectable=0;fillColor=none;top=0;left=0;bottom=0;right=0;editable=1;overflow=hidden;whiteSpace=wrap;html=1;labelBackgroundColor=none;strokeColor=#BAC8D3;fontColor=#EEEEEE;rounded=1;" parent="PgHZoclMH7Z-AwyKzAfn-8" vertex="1">
          <mxGeometry width="30" height="30" as="geometry">
            <mxRectangle width="30" height="30" as="alternateBounds" />
          </mxGeometry>
        </mxCell>
        <mxCell id="PgHZoclMH7Z-AwyKzAfn-10" value="Full name" style="shape=partialRectangle;connectable=0;fillColor=none;top=0;left=0;bottom=0;right=0;align=left;spacingLeft=6;overflow=hidden;whiteSpace=wrap;html=1;labelBackgroundColor=none;strokeColor=#BAC8D3;fontColor=#EEEEEE;rounded=1;" parent="PgHZoclMH7Z-AwyKzAfn-8" vertex="1">
          <mxGeometry x="30" width="150" height="30" as="geometry">
            <mxRectangle width="150" height="30" as="alternateBounds" />
          </mxGeometry>
        </mxCell>
        <mxCell id="37SsxcmZ2lScZCy7kptT-1" value="" style="shape=tableRow;horizontal=0;startSize=0;swimlaneHead=0;swimlaneBody=0;fillColor=none;collapsible=0;dropTarget=0;points=[[0,0.5],[1,0.5]];portConstraint=eastwest;top=0;left=0;right=0;bottom=0;fontSize=16;" parent="PgHZoclMH7Z-AwyKzAfn-1" vertex="1">
          <mxGeometry y="120" width="180" height="30" as="geometry" />
        </mxCell>
        <mxCell id="37SsxcmZ2lScZCy7kptT-2" value="" style="shape=partialRectangle;connectable=0;fillColor=none;top=0;left=0;bottom=0;right=0;editable=1;overflow=hidden;fontSize=16;" parent="37SsxcmZ2lScZCy7kptT-1" vertex="1">
          <mxGeometry width="30" height="30" as="geometry">
            <mxRectangle width="30" height="30" as="alternateBounds" />
          </mxGeometry>
        </mxCell>
        <mxCell id="37SsxcmZ2lScZCy7kptT-3" value="Image" style="shape=partialRectangle;connectable=0;fillColor=none;top=0;left=0;bottom=0;right=0;align=left;spacingLeft=6;overflow=hidden;fontSize=12;" parent="37SsxcmZ2lScZCy7kptT-1" vertex="1">
          <mxGeometry x="30" width="150" height="30" as="geometry">
            <mxRectangle width="150" height="30" as="alternateBounds" />
          </mxGeometry>
        </mxCell>
        <mxCell id="PgHZoclMH7Z-AwyKzAfn-11" value="" style="shape=tableRow;horizontal=0;startSize=0;swimlaneHead=0;swimlaneBody=0;fillColor=none;collapsible=0;dropTarget=0;points=[[0,0.5],[1,0.5]];portConstraint=eastwest;top=0;left=0;right=0;bottom=0;labelBackgroundColor=none;strokeColor=#BAC8D3;fontColor=#EEEEEE;rounded=1;" parent="PgHZoclMH7Z-AwyKzAfn-1" vertex="1">
          <mxGeometry y="150" width="180" height="30" as="geometry" />
        </mxCell>
        <mxCell id="PgHZoclMH7Z-AwyKzAfn-12" value="" style="shape=partialRectangle;connectable=0;fillColor=none;top=0;left=0;bottom=0;right=0;editable=1;overflow=hidden;whiteSpace=wrap;html=1;labelBackgroundColor=none;strokeColor=#BAC8D3;fontColor=#EEEEEE;rounded=1;" parent="PgHZoclMH7Z-AwyKzAfn-11" vertex="1">
          <mxGeometry width="30" height="30" as="geometry">
            <mxRectangle width="30" height="30" as="alternateBounds" />
          </mxGeometry>
        </mxCell>
        <mxCell id="PgHZoclMH7Z-AwyKzAfn-13" value="Address&amp;nbsp;" style="shape=partialRectangle;connectable=0;fillColor=none;top=0;left=0;bottom=0;right=0;align=left;spacingLeft=6;overflow=hidden;whiteSpace=wrap;html=1;labelBackgroundColor=none;strokeColor=#BAC8D3;fontColor=#EEEEEE;rounded=1;" parent="PgHZoclMH7Z-AwyKzAfn-11" vertex="1">
          <mxGeometry x="30" width="150" height="30" as="geometry">
            <mxRectangle width="150" height="30" as="alternateBounds" />
          </mxGeometry>
        </mxCell>
        <mxCell id="PgHZoclMH7Z-AwyKzAfn-14" value="NFTContent" style="shape=table;startSize=30;container=1;collapsible=1;childLayout=tableLayout;fixedRows=1;rowLines=0;fontStyle=1;align=center;resizeLast=1;html=1;labelBackgroundColor=none;fillColor=#09555B;strokeColor=#BAC8D3;fontColor=#EEEEEE;rounded=1;" parent="1" vertex="1">
          <mxGeometry x="370" y="-15" width="180" height="270" as="geometry" />
        </mxCell>
        <mxCell id="PgHZoclMH7Z-AwyKzAfn-15" value="" style="shape=tableRow;horizontal=0;startSize=0;swimlaneHead=0;swimlaneBody=0;fillColor=none;collapsible=0;dropTarget=0;points=[[0,0.5],[1,0.5]];portConstraint=eastwest;top=0;left=0;right=0;bottom=1;labelBackgroundColor=none;strokeColor=#BAC8D3;fontColor=#EEEEEE;rounded=1;" parent="PgHZoclMH7Z-AwyKzAfn-14" vertex="1">
          <mxGeometry y="30" width="180" height="30" as="geometry" />
        </mxCell>
        <mxCell id="PgHZoclMH7Z-AwyKzAfn-16" value="PK" style="shape=partialRectangle;connectable=0;fillColor=none;top=0;left=0;bottom=0;right=0;fontStyle=1;overflow=hidden;whiteSpace=wrap;html=1;labelBackgroundColor=none;strokeColor=#BAC8D3;fontColor=#EEEEEE;rounded=1;" parent="PgHZoclMH7Z-AwyKzAfn-15" vertex="1">
          <mxGeometry width="30" height="30" as="geometry">
            <mxRectangle width="30" height="30" as="alternateBounds" />
          </mxGeometry>
        </mxCell>
        <mxCell id="PgHZoclMH7Z-AwyKzAfn-17" value="UniqueID" style="shape=partialRectangle;connectable=0;fillColor=none;top=0;left=0;bottom=0;right=0;align=left;spacingLeft=6;fontStyle=5;overflow=hidden;whiteSpace=wrap;html=1;labelBackgroundColor=none;strokeColor=#BAC8D3;fontColor=#EEEEEE;rounded=1;" parent="PgHZoclMH7Z-AwyKzAfn-15" vertex="1">
          <mxGeometry x="30" width="150" height="30" as="geometry">
            <mxRectangle width="150" height="30" as="alternateBounds" />
          </mxGeometry>
        </mxCell>
        <mxCell id="PgHZoclMH7Z-AwyKzAfn-18" value="" style="shape=tableRow;horizontal=0;startSize=0;swimlaneHead=0;swimlaneBody=0;fillColor=none;collapsible=0;dropTarget=0;points=[[0,0.5],[1,0.5]];portConstraint=eastwest;top=0;left=0;right=0;bottom=0;labelBackgroundColor=none;strokeColor=#BAC8D3;fontColor=#EEEEEE;rounded=1;" parent="PgHZoclMH7Z-AwyKzAfn-14" vertex="1">
          <mxGeometry y="60" width="180" height="30" as="geometry" />
        </mxCell>
        <mxCell id="PgHZoclMH7Z-AwyKzAfn-19" value="" style="shape=partialRectangle;connectable=0;fillColor=none;top=0;left=0;bottom=0;right=0;editable=1;overflow=hidden;whiteSpace=wrap;html=1;labelBackgroundColor=none;strokeColor=#BAC8D3;fontColor=#EEEEEE;rounded=1;" parent="PgHZoclMH7Z-AwyKzAfn-18" vertex="1">
          <mxGeometry width="30" height="30" as="geometry">
            <mxRectangle width="30" height="30" as="alternateBounds" />
          </mxGeometry>
        </mxCell>
        <mxCell id="PgHZoclMH7Z-AwyKzAfn-20" value="seller" style="shape=partialRectangle;connectable=0;fillColor=none;top=0;left=0;bottom=0;right=0;align=left;spacingLeft=6;overflow=hidden;whiteSpace=wrap;html=1;labelBackgroundColor=none;strokeColor=#BAC8D3;fontColor=#EEEEEE;rounded=1;" parent="PgHZoclMH7Z-AwyKzAfn-18" vertex="1">
          <mxGeometry x="30" width="150" height="30" as="geometry">
            <mxRectangle width="150" height="30" as="alternateBounds" />
          </mxGeometry>
        </mxCell>
        <mxCell id="PgHZoclMH7Z-AwyKzAfn-21" value="" style="shape=tableRow;horizontal=0;startSize=0;swimlaneHead=0;swimlaneBody=0;fillColor=none;collapsible=0;dropTarget=0;points=[[0,0.5],[1,0.5]];portConstraint=eastwest;top=0;left=0;right=0;bottom=0;labelBackgroundColor=none;strokeColor=#BAC8D3;fontColor=#EEEEEE;rounded=1;" parent="PgHZoclMH7Z-AwyKzAfn-14" vertex="1">
          <mxGeometry y="90" width="180" height="30" as="geometry" />
        </mxCell>
        <mxCell id="PgHZoclMH7Z-AwyKzAfn-22" value="" style="shape=partialRectangle;connectable=0;fillColor=none;top=0;left=0;bottom=0;right=0;editable=1;overflow=hidden;whiteSpace=wrap;html=1;labelBackgroundColor=none;strokeColor=#BAC8D3;fontColor=#EEEEEE;rounded=1;" parent="PgHZoclMH7Z-AwyKzAfn-21" vertex="1">
          <mxGeometry width="30" height="30" as="geometry">
            <mxRectangle width="30" height="30" as="alternateBounds" />
          </mxGeometry>
        </mxCell>
        <mxCell id="PgHZoclMH7Z-AwyKzAfn-23" value="owner" style="shape=partialRectangle;connectable=0;fillColor=none;top=0;left=0;bottom=0;right=0;align=left;spacingLeft=6;overflow=hidden;whiteSpace=wrap;html=1;labelBackgroundColor=none;strokeColor=#BAC8D3;fontColor=#EEEEEE;rounded=1;" parent="PgHZoclMH7Z-AwyKzAfn-21" vertex="1">
          <mxGeometry x="30" width="150" height="30" as="geometry">
            <mxRectangle width="150" height="30" as="alternateBounds" />
          </mxGeometry>
        </mxCell>
        <mxCell id="PgHZoclMH7Z-AwyKzAfn-24" value="" style="shape=tableRow;horizontal=0;startSize=0;swimlaneHead=0;swimlaneBody=0;fillColor=none;collapsible=0;dropTarget=0;points=[[0,0.5],[1,0.5]];portConstraint=eastwest;top=0;left=0;right=0;bottom=0;labelBackgroundColor=none;strokeColor=#BAC8D3;fontColor=#EEEEEE;rounded=1;" parent="PgHZoclMH7Z-AwyKzAfn-14" vertex="1">
          <mxGeometry y="120" width="180" height="30" as="geometry" />
        </mxCell>
        <mxCell id="PgHZoclMH7Z-AwyKzAfn-25" value="" style="shape=partialRectangle;connectable=0;fillColor=none;top=0;left=0;bottom=0;right=0;editable=1;overflow=hidden;whiteSpace=wrap;html=1;labelBackgroundColor=none;strokeColor=#BAC8D3;fontColor=#EEEEEE;rounded=1;" parent="PgHZoclMH7Z-AwyKzAfn-24" vertex="1">
          <mxGeometry width="30" height="30" as="geometry">
            <mxRectangle width="30" height="30" as="alternateBounds" />
          </mxGeometry>
        </mxCell>
        <mxCell id="PgHZoclMH7Z-AwyKzAfn-26" value="price" style="shape=partialRectangle;connectable=0;fillColor=none;top=0;left=0;bottom=0;right=0;align=left;spacingLeft=6;overflow=hidden;whiteSpace=wrap;html=1;labelBackgroundColor=none;strokeColor=#BAC8D3;fontColor=#EEEEEE;rounded=1;" parent="PgHZoclMH7Z-AwyKzAfn-24" vertex="1">
          <mxGeometry x="30" width="150" height="30" as="geometry">
            <mxRectangle width="150" height="30" as="alternateBounds" />
          </mxGeometry>
        </mxCell>
        <mxCell id="PgHZoclMH7Z-AwyKzAfn-35" value="" style="shape=tableRow;horizontal=0;startSize=0;swimlaneHead=0;swimlaneBody=0;fillColor=none;collapsible=0;dropTarget=0;points=[[0,0.5],[1,0.5]];portConstraint=eastwest;top=0;left=0;right=0;bottom=0;labelBackgroundColor=none;strokeColor=#BAC8D3;fontColor=#EEEEEE;rounded=1;" parent="PgHZoclMH7Z-AwyKzAfn-14" vertex="1">
          <mxGeometry y="150" width="180" height="30" as="geometry" />
        </mxCell>
        <mxCell id="PgHZoclMH7Z-AwyKzAfn-36" value="" style="shape=partialRectangle;connectable=0;fillColor=none;top=0;left=0;bottom=0;right=0;editable=1;overflow=hidden;labelBackgroundColor=none;strokeColor=#BAC8D3;fontColor=#EEEEEE;rounded=1;" parent="PgHZoclMH7Z-AwyKzAfn-35" vertex="1">
          <mxGeometry width="30" height="30" as="geometry">
            <mxRectangle width="30" height="30" as="alternateBounds" />
          </mxGeometry>
        </mxCell>
        <mxCell id="PgHZoclMH7Z-AwyKzAfn-37" value="sold" style="shape=partialRectangle;connectable=0;fillColor=none;top=0;left=0;bottom=0;right=0;align=left;spacingLeft=6;overflow=hidden;labelBackgroundColor=none;strokeColor=#BAC8D3;fontColor=#EEEEEE;rounded=1;" parent="PgHZoclMH7Z-AwyKzAfn-35" vertex="1">
          <mxGeometry x="30" width="150" height="30" as="geometry">
            <mxRectangle width="150" height="30" as="alternateBounds" />
          </mxGeometry>
        </mxCell>
        <mxCell id="PgHZoclMH7Z-AwyKzAfn-40" value="" style="shape=tableRow;horizontal=0;startSize=0;swimlaneHead=0;swimlaneBody=0;fillColor=none;collapsible=0;dropTarget=0;points=[[0,0.5],[1,0.5]];portConstraint=eastwest;top=0;left=0;right=0;bottom=0;labelBackgroundColor=none;strokeColor=#BAC8D3;fontColor=#EEEEEE;rounded=1;" parent="PgHZoclMH7Z-AwyKzAfn-14" vertex="1">
          <mxGeometry y="180" width="180" height="30" as="geometry" />
        </mxCell>
        <mxCell id="PgHZoclMH7Z-AwyKzAfn-41" value="" style="shape=partialRectangle;connectable=0;fillColor=none;top=0;left=0;bottom=0;right=0;editable=1;overflow=hidden;labelBackgroundColor=none;strokeColor=#BAC8D3;fontColor=#EEEEEE;rounded=1;" parent="PgHZoclMH7Z-AwyKzAfn-40" vertex="1">
          <mxGeometry width="30" height="30" as="geometry">
            <mxRectangle width="30" height="30" as="alternateBounds" />
          </mxGeometry>
        </mxCell>
        <mxCell id="PgHZoclMH7Z-AwyKzAfn-42" value="address" style="shape=partialRectangle;connectable=0;fillColor=none;top=0;left=0;bottom=0;right=0;align=left;spacingLeft=6;overflow=hidden;labelBackgroundColor=none;strokeColor=#BAC8D3;fontColor=#EEEEEE;rounded=1;" parent="PgHZoclMH7Z-AwyKzAfn-40" vertex="1">
          <mxGeometry x="30" width="150" height="30" as="geometry">
            <mxRectangle width="150" height="30" as="alternateBounds" />
          </mxGeometry>
        </mxCell>
        <mxCell id="CFxmpVSqThcjH2CBssvx-34" value="" style="shape=tableRow;horizontal=0;startSize=0;swimlaneHead=0;swimlaneBody=0;fillColor=none;collapsible=0;dropTarget=0;points=[[0,0.5],[1,0.5]];portConstraint=eastwest;top=0;left=0;right=0;bottom=0;fontSize=16;" vertex="1" parent="PgHZoclMH7Z-AwyKzAfn-14">
          <mxGeometry y="210" width="180" height="30" as="geometry" />
        </mxCell>
        <mxCell id="CFxmpVSqThcjH2CBssvx-35" value="FK" style="shape=partialRectangle;connectable=0;fillColor=none;top=0;left=0;bottom=0;right=0;editable=1;overflow=hidden;fontSize=12;" vertex="1" parent="CFxmpVSqThcjH2CBssvx-34">
          <mxGeometry width="30" height="30" as="geometry">
            <mxRectangle width="30" height="30" as="alternateBounds" />
          </mxGeometry>
        </mxCell>
        <mxCell id="CFxmpVSqThcjH2CBssvx-36" value="Collections" style="shape=partialRectangle;connectable=0;fillColor=none;top=0;left=0;bottom=0;right=0;align=left;spacingLeft=6;overflow=hidden;fontSize=12;" vertex="1" parent="CFxmpVSqThcjH2CBssvx-34">
          <mxGeometry x="30" width="150" height="30" as="geometry">
            <mxRectangle width="150" height="30" as="alternateBounds" />
          </mxGeometry>
        </mxCell>
        <mxCell id="PgHZoclMH7Z-AwyKzAfn-43" value="" style="shape=tableRow;horizontal=0;startSize=0;swimlaneHead=0;swimlaneBody=0;fillColor=none;collapsible=0;dropTarget=0;points=[[0,0.5],[1,0.5]];portConstraint=eastwest;top=0;left=0;right=0;bottom=0;labelBackgroundColor=none;strokeColor=#BAC8D3;fontColor=#EEEEEE;rounded=1;" parent="PgHZoclMH7Z-AwyKzAfn-14" vertex="1">
          <mxGeometry y="240" width="180" height="30" as="geometry" />
        </mxCell>
        <mxCell id="PgHZoclMH7Z-AwyKzAfn-44" value="FK" style="shape=partialRectangle;connectable=0;fillColor=none;top=0;left=0;bottom=0;right=0;editable=1;overflow=hidden;labelBackgroundColor=none;strokeColor=#BAC8D3;fontColor=#EEEEEE;rounded=1;" parent="PgHZoclMH7Z-AwyKzAfn-43" vertex="1">
          <mxGeometry width="30" height="30" as="geometry">
            <mxRectangle width="30" height="30" as="alternateBounds" />
          </mxGeometry>
        </mxCell>
        <mxCell id="PgHZoclMH7Z-AwyKzAfn-45" value="like" style="shape=partialRectangle;connectable=0;fillColor=none;top=0;left=0;bottom=0;right=0;align=left;spacingLeft=6;overflow=hidden;labelBackgroundColor=none;strokeColor=#BAC8D3;fontColor=#EEEEEE;rounded=1;" parent="PgHZoclMH7Z-AwyKzAfn-43" vertex="1">
          <mxGeometry x="30" width="150" height="30" as="geometry">
            <mxRectangle width="150" height="30" as="alternateBounds" />
          </mxGeometry>
        </mxCell>
        <mxCell id="PgHZoclMH7Z-AwyKzAfn-27" style="edgeStyle=orthogonalEdgeStyle;rounded=1;orthogonalLoop=1;jettySize=auto;html=1;exitX=0;exitY=0.5;exitDx=0;exitDy=0;entryX=1;entryY=0.5;entryDx=0;entryDy=0;labelBackgroundColor=none;strokeColor=#00CCCC;fontColor=default;" parent="1" source="PgHZoclMH7Z-AwyKzAfn-18" target="PgHZoclMH7Z-AwyKzAfn-2" edge="1">
          <mxGeometry relative="1" as="geometry" />
        </mxCell>
        <mxCell id="PgHZoclMH7Z-AwyKzAfn-46" style="edgeStyle=orthogonalEdgeStyle;rounded=1;orthogonalLoop=1;jettySize=auto;html=1;entryX=1;entryY=0.5;entryDx=0;entryDy=0;labelBackgroundColor=none;strokeColor=#00CCCC;fontColor=default;" parent="1" source="PgHZoclMH7Z-AwyKzAfn-21" target="PgHZoclMH7Z-AwyKzAfn-2" edge="1">
          <mxGeometry relative="1" as="geometry" />
        </mxCell>
        <mxCell id="PgHZoclMH7Z-AwyKzAfn-49" value="Like&amp;nbsp;" style="shape=table;startSize=30;container=1;collapsible=1;childLayout=tableLayout;fixedRows=1;rowLines=0;fontStyle=1;align=center;resizeLast=1;html=1;labelBackgroundColor=none;fillColor=#09555B;strokeColor=#BAC8D3;fontColor=#EEEEEE;rounded=1;" parent="1" vertex="1">
          <mxGeometry x="600" y="315" width="180" height="145" as="geometry" />
        </mxCell>
        <mxCell id="PgHZoclMH7Z-AwyKzAfn-50" value="" style="shape=tableRow;horizontal=0;startSize=0;swimlaneHead=0;swimlaneBody=0;fillColor=none;collapsible=0;dropTarget=0;points=[[0,0.5],[1,0.5]];portConstraint=eastwest;top=0;left=0;right=0;bottom=1;labelBackgroundColor=none;strokeColor=#BAC8D3;fontColor=#EEEEEE;rounded=1;" parent="PgHZoclMH7Z-AwyKzAfn-49" vertex="1">
          <mxGeometry y="30" width="180" height="30" as="geometry" />
        </mxCell>
        <mxCell id="PgHZoclMH7Z-AwyKzAfn-51" value="PK" style="shape=partialRectangle;connectable=0;fillColor=none;top=0;left=0;bottom=0;right=0;fontStyle=1;overflow=hidden;whiteSpace=wrap;html=1;labelBackgroundColor=none;strokeColor=#BAC8D3;fontColor=#EEEEEE;rounded=1;" parent="PgHZoclMH7Z-AwyKzAfn-50" vertex="1">
          <mxGeometry width="30" height="30" as="geometry">
            <mxRectangle width="30" height="30" as="alternateBounds" />
          </mxGeometry>
        </mxCell>
        <mxCell id="PgHZoclMH7Z-AwyKzAfn-52" value="UniqueID" style="shape=partialRectangle;connectable=0;fillColor=none;top=0;left=0;bottom=0;right=0;align=left;spacingLeft=6;fontStyle=5;overflow=hidden;whiteSpace=wrap;html=1;labelBackgroundColor=none;strokeColor=#BAC8D3;fontColor=#EEEEEE;rounded=1;" parent="PgHZoclMH7Z-AwyKzAfn-50" vertex="1">
          <mxGeometry x="30" width="150" height="30" as="geometry">
            <mxRectangle width="150" height="30" as="alternateBounds" />
          </mxGeometry>
        </mxCell>
        <mxCell id="PgHZoclMH7Z-AwyKzAfn-53" value="" style="shape=tableRow;horizontal=0;startSize=0;swimlaneHead=0;swimlaneBody=0;fillColor=none;collapsible=0;dropTarget=0;points=[[0,0.5],[1,0.5]];portConstraint=eastwest;top=0;left=0;right=0;bottom=0;labelBackgroundColor=none;strokeColor=#BAC8D3;fontColor=#EEEEEE;rounded=1;" parent="PgHZoclMH7Z-AwyKzAfn-49" vertex="1">
          <mxGeometry y="60" width="180" height="30" as="geometry" />
        </mxCell>
        <mxCell id="PgHZoclMH7Z-AwyKzAfn-54" value="" style="shape=partialRectangle;connectable=0;fillColor=none;top=0;left=0;bottom=0;right=0;editable=1;overflow=hidden;whiteSpace=wrap;html=1;labelBackgroundColor=none;strokeColor=#BAC8D3;fontColor=#EEEEEE;rounded=1;" parent="PgHZoclMH7Z-AwyKzAfn-53" vertex="1">
          <mxGeometry width="30" height="30" as="geometry">
            <mxRectangle width="30" height="30" as="alternateBounds" />
          </mxGeometry>
        </mxCell>
        <mxCell id="PgHZoclMH7Z-AwyKzAfn-55" value="User" style="shape=partialRectangle;connectable=0;fillColor=none;top=0;left=0;bottom=0;right=0;align=left;spacingLeft=6;overflow=hidden;whiteSpace=wrap;html=1;labelBackgroundColor=none;strokeColor=#BAC8D3;fontColor=#EEEEEE;rounded=1;" parent="PgHZoclMH7Z-AwyKzAfn-53" vertex="1">
          <mxGeometry x="30" width="150" height="30" as="geometry">
            <mxRectangle width="150" height="30" as="alternateBounds" />
          </mxGeometry>
        </mxCell>
        <mxCell id="PgHZoclMH7Z-AwyKzAfn-56" value="" style="shape=tableRow;horizontal=0;startSize=0;swimlaneHead=0;swimlaneBody=0;fillColor=none;collapsible=0;dropTarget=0;points=[[0,0.5],[1,0.5]];portConstraint=eastwest;top=0;left=0;right=0;bottom=0;labelBackgroundColor=none;strokeColor=#BAC8D3;fontColor=#EEEEEE;rounded=1;" parent="PgHZoclMH7Z-AwyKzAfn-49" vertex="1">
          <mxGeometry y="90" width="180" height="35" as="geometry" />
        </mxCell>
        <mxCell id="PgHZoclMH7Z-AwyKzAfn-57" value="" style="shape=partialRectangle;connectable=0;fillColor=none;top=0;left=0;bottom=0;right=0;editable=1;overflow=hidden;whiteSpace=wrap;html=1;labelBackgroundColor=none;strokeColor=#BAC8D3;fontColor=#EEEEEE;rounded=1;" parent="PgHZoclMH7Z-AwyKzAfn-56" vertex="1">
          <mxGeometry width="30" height="35" as="geometry">
            <mxRectangle width="30" height="35" as="alternateBounds" />
          </mxGeometry>
        </mxCell>
        <mxCell id="PgHZoclMH7Z-AwyKzAfn-58" value="NFTContent" style="shape=partialRectangle;connectable=0;fillColor=none;top=0;left=0;bottom=0;right=0;align=left;spacingLeft=6;overflow=hidden;whiteSpace=wrap;html=1;labelBackgroundColor=none;strokeColor=#BAC8D3;fontColor=#EEEEEE;rounded=1;" parent="PgHZoclMH7Z-AwyKzAfn-56" vertex="1">
          <mxGeometry x="30" width="150" height="35" as="geometry">
            <mxRectangle width="150" height="35" as="alternateBounds" />
          </mxGeometry>
        </mxCell>
        <mxCell id="PgHZoclMH7Z-AwyKzAfn-59" value="" style="shape=tableRow;horizontal=0;startSize=0;swimlaneHead=0;swimlaneBody=0;fillColor=none;collapsible=0;dropTarget=0;points=[[0,0.5],[1,0.5]];portConstraint=eastwest;top=0;left=0;right=0;bottom=0;labelBackgroundColor=none;strokeColor=#BAC8D3;fontColor=#EEEEEE;rounded=1;" parent="PgHZoclMH7Z-AwyKzAfn-49" vertex="1">
          <mxGeometry y="125" width="180" height="20" as="geometry" />
        </mxCell>
        <mxCell id="PgHZoclMH7Z-AwyKzAfn-60" value="" style="shape=partialRectangle;connectable=0;fillColor=none;top=0;left=0;bottom=0;right=0;editable=1;overflow=hidden;whiteSpace=wrap;html=1;labelBackgroundColor=none;strokeColor=#BAC8D3;fontColor=#EEEEEE;rounded=1;" parent="PgHZoclMH7Z-AwyKzAfn-59" vertex="1">
          <mxGeometry width="30" height="20" as="geometry">
            <mxRectangle width="30" height="20" as="alternateBounds" />
          </mxGeometry>
        </mxCell>
        <mxCell id="PgHZoclMH7Z-AwyKzAfn-61" value="" style="shape=partialRectangle;connectable=0;fillColor=none;top=0;left=0;bottom=0;right=0;align=left;spacingLeft=6;overflow=hidden;whiteSpace=wrap;html=1;labelBackgroundColor=none;strokeColor=#BAC8D3;fontColor=#EEEEEE;rounded=1;" parent="PgHZoclMH7Z-AwyKzAfn-59" vertex="1">
          <mxGeometry x="30" width="150" height="20" as="geometry">
            <mxRectangle width="150" height="20" as="alternateBounds" />
          </mxGeometry>
        </mxCell>
        <mxCell id="PgHZoclMH7Z-AwyKzAfn-62" style="edgeStyle=orthogonalEdgeStyle;rounded=1;orthogonalLoop=1;jettySize=auto;html=1;entryX=0;entryY=0.5;entryDx=0;entryDy=0;labelBackgroundColor=none;strokeColor=#00CCCC;fontColor=default;" parent="1" source="PgHZoclMH7Z-AwyKzAfn-43" target="PgHZoclMH7Z-AwyKzAfn-50" edge="1">
          <mxGeometry relative="1" as="geometry" />
        </mxCell>
        <mxCell id="PgHZoclMH7Z-AwyKzAfn-63" value="Notification" style="shape=table;startSize=30;container=1;collapsible=1;childLayout=tableLayout;fixedRows=1;rowLines=0;fontStyle=1;align=center;resizeLast=1;html=1;labelBackgroundColor=none;fillColor=#09555B;strokeColor=#BAC8D3;fontColor=#EEEEEE;rounded=1;" parent="1" vertex="1">
          <mxGeometry x="370" y="315" width="180" height="150" as="geometry" />
        </mxCell>
        <mxCell id="PgHZoclMH7Z-AwyKzAfn-64" value="" style="shape=tableRow;horizontal=0;startSize=0;swimlaneHead=0;swimlaneBody=0;fillColor=none;collapsible=0;dropTarget=0;points=[[0,0.5],[1,0.5]];portConstraint=eastwest;top=0;left=0;right=0;bottom=1;labelBackgroundColor=none;strokeColor=#BAC8D3;fontColor=#EEEEEE;rounded=1;" parent="PgHZoclMH7Z-AwyKzAfn-63" vertex="1">
          <mxGeometry y="30" width="180" height="30" as="geometry" />
        </mxCell>
        <mxCell id="PgHZoclMH7Z-AwyKzAfn-65" value="PK" style="shape=partialRectangle;connectable=0;fillColor=none;top=0;left=0;bottom=0;right=0;fontStyle=1;overflow=hidden;whiteSpace=wrap;html=1;labelBackgroundColor=none;strokeColor=#BAC8D3;fontColor=#EEEEEE;rounded=1;" parent="PgHZoclMH7Z-AwyKzAfn-64" vertex="1">
          <mxGeometry width="30" height="30" as="geometry">
            <mxRectangle width="30" height="30" as="alternateBounds" />
          </mxGeometry>
        </mxCell>
        <mxCell id="PgHZoclMH7Z-AwyKzAfn-66" value="UniqueID" style="shape=partialRectangle;connectable=0;fillColor=none;top=0;left=0;bottom=0;right=0;align=left;spacingLeft=6;fontStyle=5;overflow=hidden;whiteSpace=wrap;html=1;labelBackgroundColor=none;strokeColor=#BAC8D3;fontColor=#EEEEEE;rounded=1;" parent="PgHZoclMH7Z-AwyKzAfn-64" vertex="1">
          <mxGeometry x="30" width="150" height="30" as="geometry">
            <mxRectangle width="150" height="30" as="alternateBounds" />
          </mxGeometry>
        </mxCell>
        <mxCell id="PgHZoclMH7Z-AwyKzAfn-67" value="" style="shape=tableRow;horizontal=0;startSize=0;swimlaneHead=0;swimlaneBody=0;fillColor=none;collapsible=0;dropTarget=0;points=[[0,0.5],[1,0.5]];portConstraint=eastwest;top=0;left=0;right=0;bottom=0;labelBackgroundColor=none;strokeColor=#BAC8D3;fontColor=#EEEEEE;rounded=1;" parent="PgHZoclMH7Z-AwyKzAfn-63" vertex="1">
          <mxGeometry y="60" width="180" height="30" as="geometry" />
        </mxCell>
        <mxCell id="PgHZoclMH7Z-AwyKzAfn-68" value="FK" style="shape=partialRectangle;connectable=0;fillColor=none;top=0;left=0;bottom=0;right=0;editable=1;overflow=hidden;whiteSpace=wrap;html=1;labelBackgroundColor=none;strokeColor=#BAC8D3;fontColor=#EEEEEE;rounded=1;" parent="PgHZoclMH7Z-AwyKzAfn-67" vertex="1">
          <mxGeometry width="30" height="30" as="geometry">
            <mxRectangle width="30" height="30" as="alternateBounds" />
          </mxGeometry>
        </mxCell>
        <mxCell id="PgHZoclMH7Z-AwyKzAfn-69" value="Sender" style="shape=partialRectangle;connectable=0;fillColor=none;top=0;left=0;bottom=0;right=0;align=left;spacingLeft=6;overflow=hidden;whiteSpace=wrap;html=1;labelBackgroundColor=none;strokeColor=#BAC8D3;fontColor=#EEEEEE;rounded=1;" parent="PgHZoclMH7Z-AwyKzAfn-67" vertex="1">
          <mxGeometry x="30" width="150" height="30" as="geometry">
            <mxRectangle width="150" height="30" as="alternateBounds" />
          </mxGeometry>
        </mxCell>
        <mxCell id="PgHZoclMH7Z-AwyKzAfn-70" value="" style="shape=tableRow;horizontal=0;startSize=0;swimlaneHead=0;swimlaneBody=0;fillColor=none;collapsible=0;dropTarget=0;points=[[0,0.5],[1,0.5]];portConstraint=eastwest;top=0;left=0;right=0;bottom=0;labelBackgroundColor=none;strokeColor=#BAC8D3;fontColor=#EEEEEE;rounded=1;" parent="PgHZoclMH7Z-AwyKzAfn-63" vertex="1">
          <mxGeometry y="90" width="180" height="30" as="geometry" />
        </mxCell>
        <mxCell id="PgHZoclMH7Z-AwyKzAfn-71" value="FK" style="shape=partialRectangle;connectable=0;fillColor=none;top=0;left=0;bottom=0;right=0;editable=1;overflow=hidden;whiteSpace=wrap;html=1;labelBackgroundColor=none;strokeColor=#BAC8D3;fontColor=#EEEEEE;rounded=1;" parent="PgHZoclMH7Z-AwyKzAfn-70" vertex="1">
          <mxGeometry width="30" height="30" as="geometry">
            <mxRectangle width="30" height="30" as="alternateBounds" />
          </mxGeometry>
        </mxCell>
        <mxCell id="PgHZoclMH7Z-AwyKzAfn-72" value="Recipient" style="shape=partialRectangle;connectable=0;fillColor=none;top=0;left=0;bottom=0;right=0;align=left;spacingLeft=6;overflow=hidden;whiteSpace=wrap;html=1;labelBackgroundColor=none;strokeColor=#BAC8D3;fontColor=#EEEEEE;rounded=1;" parent="PgHZoclMH7Z-AwyKzAfn-70" vertex="1">
          <mxGeometry x="30" width="150" height="30" as="geometry">
            <mxRectangle width="150" height="30" as="alternateBounds" />
          </mxGeometry>
        </mxCell>
        <mxCell id="PgHZoclMH7Z-AwyKzAfn-73" value="" style="shape=tableRow;horizontal=0;startSize=0;swimlaneHead=0;swimlaneBody=0;fillColor=none;collapsible=0;dropTarget=0;points=[[0,0.5],[1,0.5]];portConstraint=eastwest;top=0;left=0;right=0;bottom=0;labelBackgroundColor=none;strokeColor=#BAC8D3;fontColor=#EEEEEE;rounded=1;" parent="PgHZoclMH7Z-AwyKzAfn-63" vertex="1">
          <mxGeometry y="120" width="180" height="30" as="geometry" />
        </mxCell>
        <mxCell id="PgHZoclMH7Z-AwyKzAfn-74" value="" style="shape=partialRectangle;connectable=0;fillColor=none;top=0;left=0;bottom=0;right=0;editable=1;overflow=hidden;whiteSpace=wrap;html=1;labelBackgroundColor=none;strokeColor=#BAC8D3;fontColor=#EEEEEE;rounded=1;" parent="PgHZoclMH7Z-AwyKzAfn-73" vertex="1">
          <mxGeometry width="30" height="30" as="geometry">
            <mxRectangle width="30" height="30" as="alternateBounds" />
          </mxGeometry>
        </mxCell>
        <mxCell id="PgHZoclMH7Z-AwyKzAfn-75" value="Message" style="shape=partialRectangle;connectable=0;fillColor=none;top=0;left=0;bottom=0;right=0;align=left;spacingLeft=6;overflow=hidden;whiteSpace=wrap;html=1;labelBackgroundColor=none;strokeColor=#BAC8D3;fontColor=#EEEEEE;rounded=1;" parent="PgHZoclMH7Z-AwyKzAfn-73" vertex="1">
          <mxGeometry x="30" width="150" height="30" as="geometry">
            <mxRectangle width="150" height="30" as="alternateBounds" />
          </mxGeometry>
        </mxCell>
        <mxCell id="PgHZoclMH7Z-AwyKzAfn-76" style="edgeStyle=orthogonalEdgeStyle;rounded=1;orthogonalLoop=1;jettySize=auto;html=1;labelBackgroundColor=none;strokeColor=#00CCCC;fontColor=default;" parent="1" source="PgHZoclMH7Z-AwyKzAfn-67" target="PgHZoclMH7Z-AwyKzAfn-2" edge="1">
          <mxGeometry relative="1" as="geometry" />
        </mxCell>
        <mxCell id="PgHZoclMH7Z-AwyKzAfn-77" style="edgeStyle=orthogonalEdgeStyle;rounded=1;orthogonalLoop=1;jettySize=auto;html=1;entryX=1;entryY=0.5;entryDx=0;entryDy=0;labelBackgroundColor=none;strokeColor=#00CCCC;fontColor=default;" parent="1" source="PgHZoclMH7Z-AwyKzAfn-70" target="PgHZoclMH7Z-AwyKzAfn-2" edge="1">
          <mxGeometry relative="1" as="geometry" />
        </mxCell>
        <mxCell id="PgHZoclMH7Z-AwyKzAfn-79" style="edgeStyle=orthogonalEdgeStyle;rounded=1;orthogonalLoop=1;jettySize=auto;html=1;entryX=0;entryY=0.5;entryDx=0;entryDy=0;exitX=0;exitY=0.5;exitDx=0;exitDy=0;labelBackgroundColor=none;strokeColor=#00CCCC;fontColor=default;" parent="1" source="PgHZoclMH7Z-AwyKzAfn-78" target="PgHZoclMH7Z-AwyKzAfn-11" edge="1">
          <mxGeometry relative="1" as="geometry" />
        </mxCell>
        <mxCell id="PgHZoclMH7Z-AwyKzAfn-78" value="" style="shape=image;verticalLabelPosition=bottom;labelBackgroundColor=none;verticalAlign=top;aspect=fixed;imageAspect=0;image=data:image/svg+xml,PHN2ZyB4bWxucz0iaHR0cDovL3d3dy53My5vcmcvMjAwMC9zdmciIGZpbGw9Im5vbmUiIHZpZXdCb3g9IjAgMCAyMjAgMjIwIiBoZWlnaHQ9IjIyMCIgd2lkdGg9IjIyMCI+JiN4YTs8cGF0aCBzdHJva2UtbGluZWpvaW49InJvdW5kIiBzdHJva2UtbGluZWNhcD0icm91bmQiIHN0cm9rZT0iI0UyNzYxQiIgZmlsbD0iI0UyNzYxQiIgZD0iTTE4OS4yNzIgMjQuNTEzN0wxMjAuNTY1IDc1LjU0MzJMMTMzLjI3MSA0NS40MzY1TDE4OS4yNzIgMjQuNTEzN1oiLz4mI3hhOzxwYXRoIHN0cm9rZS1saW5lam9pbj0icm91bmQiIHN0cm9rZS1saW5lY2FwPSJyb3VuZCIgc3Ryb2tlPSIjMEFCQUI1IiBmaWxsPSIjMEFCQUI1IiBkPSJNMzAuNjU4NyAyNC41MTM3TDk4LjgxMzEgNzYuMDI2NUw4Ni43MjkgNDUuNDM2NUwzMC42NTg3IDI0LjUxMzdaTTE2NC41NTEgMTQyLjhMMTQ2LjI1MiAxNzAuODM1TDE4NS40MDQgMTgxLjYwN0wxOTYuNjYgMTQzLjQyMUwxNjQuNTUxIDE0Mi44Wk0yMy40MDgyIDE0My40MjFMMzQuNTk0NiAxODEuNjA3TDczLjc0NzIgMTcwLjgzNUw1NS40NDg0IDE0Mi44TDIzLjQwODIgMTQzLjQyMVoiLz4mI3hhOzxwYXRoIHN0cm9rZS1saW5lam9pbj0icm91bmQiIHN0cm9rZS1saW5lY2FwPSJyb3VuZCIgc3Ryb2tlPSIjMEFCQUI1IiBmaWxsPSIjMEFCQUI1IiBkPSJNNzEuNTM4MiA5NS40Mjk1TDYwLjYyNzkgMTExLjkzM0w5OS41MDQzIDExMy42NTlMOTguMTIzMiA3MS44ODI4TDcxLjUzODIgOTUuNDI5NVpNMTQ4LjM5MyA5NS40Mjk1TDEyMS40NjMgNzEuMzk5NEwxMjAuNTY1IDExMy42NTlMMTU5LjM3MiAxMTEuOTMzTDE0OC4zOTMgOTUuNDI5NVpNNzMuNzQ3OCAxNzAuODM0TDk3LjA4NzQgMTU5LjQ0MUw3Ni45MjQyIDE0My42OTdMNzMuNzQ3OCAxNzAuODM0Wk0xMjIuODQ0IDE1OS40NDFMMTQ2LjI1MyAxNzAuODM0TDE0My4wMDcgMTQzLjY5N0wxMjIuODQ0IDE1OS40NDFaIi8+JiN4YTs8cGF0aCBzdHJva2UtbGluZWpvaW49InJvdW5kIiBzdHJva2UtbGluZWNhcD0icm91bmQiIHN0cm9rZT0iI0Q3QzFCMyIgZmlsbD0iI0Q3QzFCMyIgZD0iTTE0Ni4yNTMgMTcwLjgzNUwxMjIuODQ0IDE1OS40NDFMMTI0LjcwOCAxNzQuNzAyTDEyNC41MDEgMTgxLjEyNEwxNDYuMjUzIDE3MC44MzVaTTczLjc0OCAxNzAuODM1TDk1LjQ5OTUgMTgxLjEyNEw5NS4zNjE0IDE3NC43MDJMOTcuMDg3NyAxNTkuNDQxTDczLjc0OCAxNzAuODM1WiIvPiYjeGE7PHBhdGggZmlsbD0iIzIzMzQ0NyIgZD0iTTk1Ljg0NDggMTMzLjYxNkw3Ni4zNzIxIDEyNy44ODRMOTAuMTEzNCAxMjEuNjAxTDk1Ljg0NDggMTMzLjYxNlpNMTI0LjA4NyAxMzMuNjE2TDEyOS44MTggMTIxLjYwMUwxNDMuNjI5IDEyNy44ODRMMTI0LjA4NyAxMzMuNjE2WiIvPiYjeGE7PHBhdGggc3Ryb2tlLWxpbmVqb2luPSJyb3VuZCIgc3Ryb2tlLWxpbmVjYXA9InJvdW5kIiBzdHJva2U9IiNDRDYxMTYiIGZpbGw9IiNDRDYxMTYiIGQ9Ik03My43NDggMTcwLjgzNUw3Ny4wNjI1IDE0Mi44TDU1LjQ0OTIgMTQzLjQyMUw3My43NDggMTcwLjgzNVpNMTQyLjkzOCAxNDIuOEwxNDYuMjUzIDE3MC44MzVMMTY0LjU1MiAxNDMuNDIxTDE0Mi45MzggMTQyLjhaTTE1OS4zNzMgMTExLjkzNEwxMjAuNTY1IDExMy42NkwxMjQuMTU2IDEzMy42MTZMMTI5Ljg4NyAxMjEuNjAxTDE0My42OTggMTI3Ljg4NUwxNTkuMzczIDExMS45MzRaTTc2LjM3MiAxMjcuODg1TDkwLjE4MjQgMTIxLjYwMUw5NS44NDQ3IDEzMy42MTZMOTkuNTA0NSAxMTMuNjZMNjAuNjI4MSAxMTEuOTM0TDc2LjM3MiAxMjcuODg1WiIvPiYjeGE7PHBhdGggc3Ryb2tlLWxpbmVqb2luPSJyb3VuZCIgc3Ryb2tlLWxpbmVjYXA9InJvdW5kIiBzdHJva2U9IiNFNDc1MUYiIGZpbGw9IiNFNDc1MUYiIGQ9Ik02MC42Mjc5IDExMS45MzRMNzYuOTI0MiAxNDMuNjk4TDc2LjM3MTggMTI3Ljg4NUw2MC42Mjc5IDExMS45MzRaTTE0My42OTggMTI3Ljg4NUwxNDMuMDA3IDE0My42OThMMTU5LjM3MiAxMTEuOTM0TDE0My42OTggMTI3Ljg4NVpNOTkuNTA0MyAxMTMuNjZMOTUuODQ0NSAxMzMuNjE2TDEwMC40MDIgMTU3LjE2M0wxMDEuNDM4IDEyNi4xNThMOTkuNTA0MyAxMTMuNjZaTTEyMC41NjUgMTEzLjY2TDExOC43MDEgMTI2LjA4OUwxMTkuNTI5IDE1Ny4xNjNMMTI0LjE1NiAxMzMuNjE2TDEyMC41NjUgMTEzLjY2WiIvPiYjeGE7PHBhdGggc3Ryb2tlLWxpbmVqb2luPSJyb3VuZCIgc3Ryb2tlLWxpbmVjYXA9InJvdW5kIiBzdHJva2U9IiNGNjg1MUIiIGZpbGw9IiNGNjg1MUIiIGQ9Ik0xMjQuMTU2IDEzMy42MTZMMTE5LjUzIDE1Ny4xNjNMMTIyLjg0NCAxNTkuNDQyTDE0My4wMDcgMTQzLjY5OEwxNDMuNjk4IDEyNy44ODVMMTI0LjE1NiAxMzMuNjE2Wk03Ni4zNzIxIDEyNy44ODVMNzYuOTI0NSAxNDMuNjk4TDk3LjA4NzcgMTU5LjQ0MkwxMDAuNDAyIDE1Ny4xNjNMOTUuODQ0OCAxMzMuNjE2TDc2LjM3MjEgMTI3Ljg4NVoiLz4mI3hhOzxwYXRoIHN0cm9rZS1saW5lam9pbj0icm91bmQiIHN0cm9rZS1saW5lY2FwPSJyb3VuZCIgc3Ryb2tlPSIjQzBBRDlFIiBmaWxsPSIjQzBBRDlFIiBkPSJNMTI0LjUwMSAxODEuMTI0TDEyNC43MDggMTc0LjcwMkwxMjIuOTgyIDE3My4xODNIOTYuOTQ5NUw5NS4zNjE0IDE3NC43MDJMOTUuNDk5NSAxODEuMTI0TDczLjc0OCAxNzAuODM1TDgxLjM0MzggMTc3LjA1TDk2Ljc0MjQgMTg3Ljc1M0gxMjMuMTg5TDEzOC42NTcgMTc3LjA1TDE0Ni4yNTMgMTcwLjgzNUwxMjQuNTAxIDE4MS4xMjRaIi8+JiN4YTs8cGF0aCBzdHJva2UtbGluZWpvaW49InJvdW5kIiBzdHJva2UtbGluZWNhcD0icm91bmQiIHN0cm9rZT0iIzE2MTYxNiIgZmlsbD0iIzE2MTYxNiIgZD0iTTEyMi44NDQgMTU5LjQ0MUwxMTkuNTMgMTU3LjE2MkgxMDAuNDAyTDk3LjA4NzYgMTU5LjQ0MUw5NS4zNjEzIDE3NC43MDFMOTYuOTQ5NSAxNzMuMTgySDEyMi45ODJMMTI0LjcwOCAxNzQuNzAxTDEyMi44NDQgMTU5LjQ0MVoiLz4mI3hhOzxwYXRoIHN0cm9rZS1saW5lam9pbj0icm91bmQiIHN0cm9rZS1saW5lY2FwPSJyb3VuZCIgc3Ryb2tlPSIjNzYzRDE2IiBmaWxsPSIjNzYzRDE2IiBkPSJNMTkyLjE3MiA3OC44NTc3TDE5OC4wNDIgNTAuNjg0NEwxODkuMjcyIDI0LjUxMzdMMTIyLjg0NCA3My44MTY5TDE0OC4zOTMgOTUuNDMwMkwxODQuNTA4IDEwNS45OTVMMTkyLjUxOCA5Ni42NzMxTDE4OS4wNjUgOTQuMTg3MkwxOTQuNTg5IDg5LjE0NjRMMTkwLjMwOCA4NS44MzE5TDE5NS44MzIgODEuNjE5OEwxOTIuMTcyIDc4Ljg1NzdaTTIxLjk1OSA1MC42ODQ0TDI3LjgyODQgNzguODU3N0wyNC4wOTk2IDgxLjYxOThMMjkuNjIzOCA4NS44MzE5TDI1LjQxMTYgODkuMTQ2NEwzMC45MzU4IDk0LjE4NzJMMjcuNDgzMiA5Ni42NzMxTDM1LjQyNDEgMTA1Ljk5NUw3MS41Mzg0IDk1LjQzMDJMOTcuMDg3NyA3My44MTY5TDMwLjY1OTUgMjQuNTEzN0wyMS45NTkgNTAuNjg0NFoiLz4mI3hhOzxwYXRoIHN0cm9rZS1saW5lam9pbj0icm91bmQiIHN0cm9rZS1saW5lY2FwPSJyb3VuZCIgc3Ryb2tlPSIjRjY4NTFCIiBmaWxsPSIjRjY4NTFCIiBkPSJNMTg0LjUwNyAxMDUuOTk1TDE0OC4zOTIgOTUuNDMwMkwxNTkuMzcyIDExMS45MzRMMTQzLjAwNiAxNDMuNjk4TDE2NC41NTEgMTQzLjQyMUgxOTYuNjZMMTg0LjUwNyAxMDUuOTk1Wk03MS41Mzc1IDk1LjQzMDJMMzUuNDIzMyAxMDUuOTk1TDIzLjQwODIgMTQzLjQyMUg1NS40NDg0TDc2LjkyMzYgMTQzLjY5OEw2MC42MjczIDExMS45MzRMNzEuNTM3NSA5NS40MzAyWk0xMjAuNTY1IDExMy42NkwxMjIuODQzIDczLjgxNjlMMTMzLjMzOSA0NS40MzY1SDg2LjcyOUw5Ny4wODY4IDczLjgxNjlMOTkuNTAzNiAxMTMuNjZMMTAwLjMzMiAxMjYuMjI3TDEwMC40MDEgMTU3LjE2M0gxMTkuNTI5TDExOS42NjcgMTI2LjIyN0wxMjAuNTY1IDExMy42NloiLz4mI3hhOzwvc3ZnPg==;fillColor=#09555B;strokeColor=#BAC8D3;fontColor=#EEEEEE;rounded=1;" parent="1" vertex="1">
          <mxGeometry x="120" y="260" width="130" height="130" as="geometry" />
        </mxCell>
        <mxCell id="CFxmpVSqThcjH2CBssvx-14" value="Collections" style="shape=table;startSize=30;container=1;collapsible=1;childLayout=tableLayout;fixedRows=1;rowLines=0;fontStyle=1;align=center;resizeLast=1;html=1;labelBackgroundColor=none;fillColor=#09555B;strokeColor=#BAC8D3;fontColor=#EEEEEE;rounded=1;" vertex="1" parent="1">
          <mxGeometry x="647" y="40" width="180" height="175" as="geometry" />
        </mxCell>
        <mxCell id="CFxmpVSqThcjH2CBssvx-15" value="" style="shape=tableRow;horizontal=0;startSize=0;swimlaneHead=0;swimlaneBody=0;fillColor=none;collapsible=0;dropTarget=0;points=[[0,0.5],[1,0.5]];portConstraint=eastwest;top=0;left=0;right=0;bottom=1;labelBackgroundColor=none;strokeColor=#BAC8D3;fontColor=#EEEEEE;rounded=1;" vertex="1" parent="CFxmpVSqThcjH2CBssvx-14">
          <mxGeometry y="30" width="180" height="30" as="geometry" />
        </mxCell>
        <mxCell id="CFxmpVSqThcjH2CBssvx-16" value="PK" style="shape=partialRectangle;connectable=0;fillColor=none;top=0;left=0;bottom=0;right=0;fontStyle=1;overflow=hidden;whiteSpace=wrap;html=1;labelBackgroundColor=none;strokeColor=#BAC8D3;fontColor=#EEEEEE;rounded=1;" vertex="1" parent="CFxmpVSqThcjH2CBssvx-15">
          <mxGeometry width="30" height="30" as="geometry">
            <mxRectangle width="30" height="30" as="alternateBounds" />
          </mxGeometry>
        </mxCell>
        <mxCell id="CFxmpVSqThcjH2CBssvx-17" value="UniqueID" style="shape=partialRectangle;connectable=0;fillColor=none;top=0;left=0;bottom=0;right=0;align=left;spacingLeft=6;fontStyle=5;overflow=hidden;whiteSpace=wrap;html=1;labelBackgroundColor=none;strokeColor=#BAC8D3;fontColor=#EEEEEE;rounded=1;" vertex="1" parent="CFxmpVSqThcjH2CBssvx-15">
          <mxGeometry x="30" width="150" height="30" as="geometry">
            <mxRectangle width="150" height="30" as="alternateBounds" />
          </mxGeometry>
        </mxCell>
        <mxCell id="CFxmpVSqThcjH2CBssvx-18" value="" style="shape=tableRow;horizontal=0;startSize=0;swimlaneHead=0;swimlaneBody=0;fillColor=none;collapsible=0;dropTarget=0;points=[[0,0.5],[1,0.5]];portConstraint=eastwest;top=0;left=0;right=0;bottom=0;labelBackgroundColor=none;strokeColor=#BAC8D3;fontColor=#EEEEEE;rounded=1;" vertex="1" parent="CFxmpVSqThcjH2CBssvx-14">
          <mxGeometry y="60" width="180" height="30" as="geometry" />
        </mxCell>
        <mxCell id="CFxmpVSqThcjH2CBssvx-19" value="" style="shape=partialRectangle;connectable=0;fillColor=none;top=0;left=0;bottom=0;right=0;editable=1;overflow=hidden;whiteSpace=wrap;html=1;labelBackgroundColor=none;strokeColor=#BAC8D3;fontColor=#EEEEEE;rounded=1;" vertex="1" parent="CFxmpVSqThcjH2CBssvx-18">
          <mxGeometry width="30" height="30" as="geometry">
            <mxRectangle width="30" height="30" as="alternateBounds" />
          </mxGeometry>
        </mxCell>
        <mxCell id="CFxmpVSqThcjH2CBssvx-20" value="owner" style="shape=partialRectangle;connectable=0;fillColor=none;top=0;left=0;bottom=0;right=0;align=left;spacingLeft=6;overflow=hidden;whiteSpace=wrap;html=1;labelBackgroundColor=none;strokeColor=#BAC8D3;fontColor=#EEEEEE;rounded=1;" vertex="1" parent="CFxmpVSqThcjH2CBssvx-18">
          <mxGeometry x="30" width="150" height="30" as="geometry">
            <mxRectangle width="150" height="30" as="alternateBounds" />
          </mxGeometry>
        </mxCell>
        <mxCell id="CFxmpVSqThcjH2CBssvx-27" value="" style="shape=tableRow;horizontal=0;startSize=0;swimlaneHead=0;swimlaneBody=0;fillColor=none;collapsible=0;dropTarget=0;points=[[0,0.5],[1,0.5]];portConstraint=eastwest;top=0;left=0;right=0;bottom=0;fontSize=16;" vertex="1" parent="CFxmpVSqThcjH2CBssvx-14">
          <mxGeometry y="90" width="180" height="30" as="geometry" />
        </mxCell>
        <mxCell id="CFxmpVSqThcjH2CBssvx-28" value="" style="shape=partialRectangle;connectable=0;fillColor=none;top=0;left=0;bottom=0;right=0;editable=1;overflow=hidden;fontSize=16;" vertex="1" parent="CFxmpVSqThcjH2CBssvx-27">
          <mxGeometry width="30" height="30" as="geometry">
            <mxRectangle width="30" height="30" as="alternateBounds" />
          </mxGeometry>
        </mxCell>
        <mxCell id="CFxmpVSqThcjH2CBssvx-29" value="Name" style="shape=partialRectangle;connectable=0;fillColor=none;top=0;left=0;bottom=0;right=0;align=left;spacingLeft=6;overflow=hidden;fontSize=12;" vertex="1" parent="CFxmpVSqThcjH2CBssvx-27">
          <mxGeometry x="30" width="150" height="30" as="geometry">
            <mxRectangle width="150" height="30" as="alternateBounds" />
          </mxGeometry>
        </mxCell>
        <mxCell id="CFxmpVSqThcjH2CBssvx-24" value="" style="shape=tableRow;horizontal=0;startSize=0;swimlaneHead=0;swimlaneBody=0;fillColor=none;collapsible=0;dropTarget=0;points=[[0,0.5],[1,0.5]];portConstraint=eastwest;top=0;left=0;right=0;bottom=0;labelBackgroundColor=none;strokeColor=#BAC8D3;fontColor=#EEEEEE;rounded=1;" vertex="1" parent="CFxmpVSqThcjH2CBssvx-14">
          <mxGeometry y="120" width="180" height="20" as="geometry" />
        </mxCell>
        <mxCell id="CFxmpVSqThcjH2CBssvx-25" value="" style="shape=partialRectangle;connectable=0;fillColor=none;top=0;left=0;bottom=0;right=0;editable=1;overflow=hidden;whiteSpace=wrap;html=1;labelBackgroundColor=none;strokeColor=#BAC8D3;fontColor=#EEEEEE;rounded=1;" vertex="1" parent="CFxmpVSqThcjH2CBssvx-24">
          <mxGeometry width="30" height="20" as="geometry">
            <mxRectangle width="30" height="20" as="alternateBounds" />
          </mxGeometry>
        </mxCell>
        <mxCell id="CFxmpVSqThcjH2CBssvx-26" value="" style="shape=partialRectangle;connectable=0;fillColor=none;top=0;left=0;bottom=0;right=0;align=left;spacingLeft=6;overflow=hidden;whiteSpace=wrap;html=1;labelBackgroundColor=none;strokeColor=#BAC8D3;fontColor=#EEEEEE;rounded=1;" vertex="1" parent="CFxmpVSqThcjH2CBssvx-24">
          <mxGeometry x="30" width="150" height="20" as="geometry">
            <mxRectangle width="150" height="20" as="alternateBounds" />
          </mxGeometry>
        </mxCell>
        <mxCell id="CFxmpVSqThcjH2CBssvx-21" value="" style="shape=tableRow;horizontal=0;startSize=0;swimlaneHead=0;swimlaneBody=0;fillColor=none;collapsible=0;dropTarget=0;points=[[0,0.5],[1,0.5]];portConstraint=eastwest;top=0;left=0;right=0;bottom=0;labelBackgroundColor=none;strokeColor=#BAC8D3;fontColor=#EEEEEE;rounded=1;" vertex="1" parent="CFxmpVSqThcjH2CBssvx-14">
          <mxGeometry y="140" width="180" height="35" as="geometry" />
        </mxCell>
        <mxCell id="CFxmpVSqThcjH2CBssvx-22" value="" style="shape=partialRectangle;connectable=0;fillColor=none;top=0;left=0;bottom=0;right=0;editable=1;overflow=hidden;whiteSpace=wrap;html=1;labelBackgroundColor=none;strokeColor=#BAC8D3;fontColor=#EEEEEE;rounded=1;" vertex="1" parent="CFxmpVSqThcjH2CBssvx-21">
          <mxGeometry width="30" height="35" as="geometry">
            <mxRectangle width="30" height="35" as="alternateBounds" />
          </mxGeometry>
        </mxCell>
        <mxCell id="CFxmpVSqThcjH2CBssvx-23" value="" style="shape=partialRectangle;connectable=0;fillColor=none;top=0;left=0;bottom=0;right=0;align=left;spacingLeft=6;overflow=hidden;whiteSpace=wrap;html=1;labelBackgroundColor=none;strokeColor=#BAC8D3;fontColor=#EEEEEE;rounded=1;" vertex="1" parent="CFxmpVSqThcjH2CBssvx-21">
          <mxGeometry x="30" width="150" height="35" as="geometry">
            <mxRectangle width="150" height="35" as="alternateBounds" />
          </mxGeometry>
        </mxCell>
        <mxCell id="CFxmpVSqThcjH2CBssvx-42" style="edgeStyle=orthogonalEdgeStyle;rounded=1;orthogonalLoop=1;jettySize=auto;html=1;entryX=0;entryY=0.5;entryDx=0;entryDy=0;labelBackgroundColor=none;strokeColor=#00CCCC;fontColor=default;" edge="1" parent="1" target="CFxmpVSqThcjH2CBssvx-15">
          <mxGeometry relative="1" as="geometry">
            <mxPoint x="549.5" y="210" as="sourcePoint" />
            <mxPoint x="599.5" y="330" as="targetPoint" />
            <Array as="points">
              <mxPoint x="600" y="210" />
              <mxPoint x="600" y="85" />
            </Array>
          </mxGeometry>
        </mxCell>
      </root>
    </mxGraphModel>
  </diagram>
</mxfile>
